<svg width="200" height="200" viewBox="0 0 200 200" fill="none" xmlns="http://www.w3.org/2000/svg">
    <defs>
        <!-- 定义渐变色 -->
        <linearGradient id="cloudGradient" x1="0" y1="0" x2="0" y2="1" gradientUnits="userSpaceOnUse">
            <stop stop-color="#87CEEB"/>  <!-- Light Sky Blue -->
            <stop offset="1" stop-color="#4682B4"/>  <!-- Steel Blue -->
        </linearGradient>
        <linearGradient id="panelGradient" x1="0" y1="0" x2="0" y2="1" gradientUnits="userSpaceOnUse">
            <stop stop-color="#90EE90"/>  <!-- Light Green -->
            <stop offset="1" stop-color="#32CD32"/>  <!-- Lime Green -->
        </linearGradient>
        <!-- 定义阴影滤镜 -->
        <filter id="dropShadow" x="-20%" y="-20%" width="140%" height="140%" filterUnits="objectBoundingBox" primitiveUnits="userSpaceOnUse">
            <feGaussianBlur stdDeviation="5" in="SourceAlpha" result="blur"/>
            <feOffset in="blur" dx="3" dy="3" result="offsetBlur"/>
            <feMerge>
                <feMergeNode in="offsetBlur" />
                <feMergeNode in="SourceGraphic" />
            </feMerge>
        </filter>
    </defs>
    <!-- 云朵 -->
    <path d="M50,80 C30,80 30,60 50,60 C70,60 70,80 90,80 C90,100 70,100 70,120 C50,120 50,100 30,100 C30,100 30,80 50,80 Z" fill="url(#cloudGradient)" filter="url(#dropShadow)"/>
    <path d="M90,80 C110,80 110,60 90,60 C70,60 70,80 50,80 C50,100 70,100 70,120 C90,120 90,100 110,100 C110,100 110,80 90,80 Z" fill="url(#cloudGradient)" filter="url(#dropShadow)"/>
    <path d="M130,80 C150,80 150,60 130,60 C110,60 110,80 90,80 C90,100 110,100 110,120 C130,120 130,100 150,100 C150,100 150,80 130,80 Z" fill="url(#cloudGradient)" filter="url(#dropShadow)"/>
    <!-- 控制面板背景 -->
    <rect x="30" y="130" width="140" height="50" rx="10" ry="10" fill="url(#panelGradient)" filter="url(#dropShadow)"/>
    <!-- 滑块 1 -->
    <rect x="40" y="145" width="20" height="20" rx="5" ry="5" fill="white" stroke="#228B22" stroke-width="2" filter="url(#dropShadow)"/> <!-- ForestGreen -->
    <!-- 滑块 2 -->
    <rect x="90" y="145" width="20" height="20" rx="5" ry="5" fill="white" stroke="#228B22" stroke-width="2" filter="url(#dropShadow)"/>
    <!-- 滑块 3 -->
    <rect x="140" y="145" width="20" height="20" rx="5" ry="5" fill="white" stroke="#228B22" stroke-width="2" filter="url(#dropShadow)"/>
    <!-- 文字 (可选，根据需要添加) -->
    <!-- <text x="100" y="30" font-size="20" text-anchor="middle" fill="#333">CloudHost</text> -->
</svg>
