<svg width="200" height="200" viewBox="0 0 200 200" fill="none" xmlns="http://www.w3.org/2000/svg">
  <!-- 背景 (可选) -->
  <rect width="200" height="200" fill="#F0F0F0" />
  <!-- 盾牌 -->
  <path d="M100 20C50 20 10 50 10 100C10 150 50 180 100 180C150 180 190 150 190 100C190 50 150 20 100 20Z" fill="#003366" />
  <!-- 多层防御 (圆环) -->
  <circle cx="100" cy="100" r="60" stroke="#FFD700" stroke-width="5" />
  <circle cx="100" cy="100" r="75" stroke="#FFD700" stroke-width="3" stroke-dasharray="5 5" />
  <circle cx="100" cy="100" r="90" stroke="#003366" stroke-width="2" />
  <!-- 锁 -->
  <path d="M100 80C90 80 82 88 82 98V120C82 130 90 138 100 138C110 138 118 130 118 120V98C118 88 110 80 100 80ZM95 98H105V110H95V98Z" fill="#FFD700" />
  <!-- ISO 27001 文字 -->
  <text x="100" y="160" font-family="Arial" font-size="12" fill="#FFFFFF" text-anchor="middle">ISO 27001</text>
  <text x="100" y="175" font-family="Arial" font-size="8" fill="#FFFFFF" text-anchor="middle">CERTIFIED</text>
</svg>
